<?xml version="1.0" standalone="no"?>
<!DOCTYPE svg PUBLIC "-//W3C//DTD SVG 20010904//EN"
 "http://www.w3.org/TR/2001/REC-SVG-20010904/DTD/svg10.dtd">
<svg version="1.0" xmlns="http://www.w3.org/2000/svg"
 width="651.000000pt" height="800.000000pt" viewBox="0 0 651.000000 800.000000"
 preserveAspectRatio="xMidYMid meet">

<g transform="translate(0.000000,800.000000) scale(0.100000,-0.100000)"
fill="#000000" stroke="none">
<path d="M4700 7985 c-288 -49 -591 -195 -845 -406 -309 -258 -539 -650 -610
-1043 -18 -94 -24 -289 -11 -343 l8 -33 109 0 c237 0 482 86 740 258 356 238
632 655 729 1100 34 156 45 358 24 460 -5 26 -27 27 -144 7z"/>
<path d="M4565 6060 c-191 -22 -380 -72 -630 -167 -93 -36 -223 -85 -288 -109
-305 -115 -402 -112 -754 25 -73 28 -192 74 -264 102 -279 107 -510 147 -749
129 -866 -67 -1555 -690 -1790 -1621 -178 -704 -84 -1610 257 -2473 186 -473
393 -823 777 -1315 104 -135 318 -356 413 -427 208 -157 420 -220 653 -194
131 14 237 45 435 126 389 160 505 188 780 188 276 0 380 -23 709 -161 284
-119 398 -147 601 -146 276 1 501 108 751 357 140 141 222 241 406 498 211
296 368 572 496 873 60 142 148 384 141 388 -2 1 -43 21 -91 45 -186 92 -384
243 -534 406 -292 317 -444 716 -444 1164 1 376 106 712 318 1012 89 127 318
355 445 444 l98 69 -17 26 c-40 62 -138 173 -232 263 -270 259 -626 427 -1019
482 -142 20 -365 27 -468 16z"/>
</g>
</svg>
